<?xml version="1.0" encoding="utf-8"?>
<!-- Generator: Adobe Illustrator 18.0.0, SVG Export Plug-In . SVG Version: 6.00 Build 0)  -->
<!DOCTYPE svg PUBLIC "-//W3C//DTD SVG 1.1//EN" "http://www.w3.org/Graphics/SVG/1.1/DTD/svg11.dtd">
<svg version="1.1" id="Layer_1" xmlns="http://www.w3.org/2000/svg" xmlns:xlink="http://www.w3.org/1999/xlink" x="0px" y="0px"
	 viewBox="0 0 328 466" enable-background="new 0 0 328 466" xml:space="preserve">
<g>
	<path fill="#D1D3D4" d="M200.6,381.4h-71.2v-9.1c0-62.8-31.6-95.4-52.6-117c-6.1-6.3-11.3-11.7-15.1-17c-1.7-2.2-4.6-6.3-4.7-6.5
		c-15-21.9-22.8-47.4-22.8-73.9C34.2,89,88,32.2,155.8,27.4v-0.3l18.4,0v0.3C242.1,32.2,295.9,89,295.9,158
		c0,26.4-7.9,51.9-22.7,73.7c-0.2,0.3-3.2,4.4-4.8,6.6c-3.8,5.3-9.1,10.7-15.1,17c-20.9,21.6-52.6,54.3-52.6,117V381.4z
		 M147.5,363.2h35.2c2.8-64.2,35.5-97.9,57.5-120.6c5.6-5.8,10.5-10.8,13.5-15l0.2-0.3c1.2-1.5,3.6-4.8,4.4-6
		c12.7-18.6,19.4-40.5,19.4-63.3c0-62-50.5-112.6-112.5-112.7H165C102.9,45.4,52.4,96,52.4,158c0,22.8,6.8,44.7,19.6,63.5
		c0.7,1,3.1,4.3,4.3,5.8l0.2,0.3c3,4.2,7.9,9.2,13.5,15C111.9,265.3,144.6,299.1,147.5,363.2z"/>
</g>
<g>
	<g>
		<path fill="#D1D3D4" d="M193.2,392h-55.6c-4.3,0-7.9-3.5-7.9-7.9v-2.4c0-4.3,3.5-7.9,7.9-7.9h55.6c4.3,0,7.9,3.5,7.9,7.9v2.4
			C201.1,388.5,197.6,392,193.2,392z"/>
	</g>
	<g>
		<path fill="#D1D3D4" d="M193.2,410.2h-55.6c-4.3,0-7.9-3.5-7.9-7.9v-2.4c0-4.3,3.5-7.9,7.9-7.9h55.6c4.3,0,7.9,3.5,7.9,7.9v2.4
			C201.1,406.7,197.6,410.2,193.2,410.2z"/>
	</g>
	<g>
		<path fill="#D1D3D4" d="M193.2,428.4h-55.6c-4.3,0-7.9-3.5-7.9-7.9v-2.4c0-4.3,3.5-7.9,7.9-7.9h55.6c4.3,0,7.9,3.5,7.9,7.9v2.4
			C201.1,424.9,197.6,428.4,193.2,428.4z"/>
	</g>
	<g>
		<path fill="#D1D3D4" d="M170.1,437.5h-6.9c-3.5,0-8-1.2-10.9-3.4l0,0c-4.9-3.7-4.6-9.3,4.9-9.3H176c9.5,0,9.8,5.6,4.9,9.3l0,0
			C178,436.3,173.6,437.5,170.1,437.5z"/>
	</g>
</g>
</svg>
