<?xml version="1.0" encoding="utf-8"?>
<!-- Generator: Adobe Illustrator 18.0.0, SVG Export Plug-In . SVG Version: 6.00 Build 0)  -->
<!DOCTYPE svg PUBLIC "-//W3C//DTD SVG 1.1//EN" "http://www.w3.org/Graphics/SVG/1.1/DTD/svg11.dtd">
<svg version="1.1" id="Layer_1" xmlns="http://www.w3.org/2000/svg" xmlns:xlink="http://www.w3.org/1999/xlink" x="0px" y="0px"
	 viewBox="60 0 30 80" enable-background="new 60 0 30 80" xml:space="preserve">
<g>
	<g>
		<path fill="#D1D3D4" d="M67.9,22.7c0.8-2.8,1-6.3-0.4-10.3c-1.4-4.1-3.7-6.6-6.2-8.2l1.5-0.6c2.2,1.3,4.7,3.7,6.3,8.2
			c1.6,4.5,1.1,7.9,0.3,10.4L67.9,22.7z"/>
	</g>
	<g>
		<path fill="#D1D3D4" d="M80.5,22.1c-0.8-2.5-1.3-5.9,0.3-10.4c1.6-4.5,4.2-6.9,6.3-8.2l1.5,0.6c-2.5,1.7-4.7,4.2-6.2,8.2
			c-1.4,4.1-1.3,7.5-0.4,10.3L80.5,22.1z"/>
	</g>
</g>
<rect x="80.6" y="25.8" fill="#D1D3D4" width="1.6" height="50.6"/>
<rect x="68" y="25.8" fill="#D1D3D4" width="1.6" height="50.6"/>
</svg>
