<?xml version="1.0" encoding="utf-8"?>
<!-- Generator: Adobe Illustrator 18.0.0, SVG Export Plug-In . SVG Version: 6.00 Build 0)  -->
<!DOCTYPE svg PUBLIC "-//W3C//DTD SVG 1.1//EN" "http://www.w3.org/Graphics/SVG/1.1/DTD/svg11.dtd">
<svg version="1.1" id="Layer_1" xmlns="http://www.w3.org/2000/svg" xmlns:xlink="http://www.w3.org/1999/xlink" x="0px" y="0px"
	 viewBox="0 0 150 80" enable-background="new 0 0 150 80" xml:space="preserve">
<g>
	<g>
		<path fill="#D2D3D4" d="M5.3,37.8c6,0,7-3.3,7-6.3c0-2.4-0.4-4.7-0.7-7.1c-0.4-2.4-0.7-4.7-0.7-7.1c0-7.9,5.1-11.2,12.3-11.2H25
			v4.7h-1.6c-5,0-6.7,2.8-6.7,7.4c0,2,0.3,3.9,0.7,6s0.7,4.2,0.7,6.4c0.1,5.5-2.4,8.1-6.2,9.2V40c3.8,0.9,6.2,3.8,6.2,9.3
			c0,2.4-0.3,4.5-0.7,6.4c-0.4,2.1-0.7,4.1-0.7,6.2c0,4.7,2,7.4,6.7,7.4H25V74h-1.8c-7.1,0-12.3-3-12.3-11.7c0-2.4,0.4-4.7,0.7-7
			c0.4-2.4,0.7-4.6,0.7-7c0-2.6-0.9-6.3-7-6.3C5.3,42,5.3,37.8,5.3,37.8z"/>
	</g>
	<g>
		<path fill="#D2D3D4" d="M144.7,42.1c-6,0-7,3.7-7,6.3c0,2.4,0.4,4.6,0.7,7c0.4,2.4,0.7,4.7,0.7,7c0,8.7-5.4,11.7-12.3,11.7H125
			v-4.7h1.4c4.7-0.1,6.8-2.6,6.8-7.4c0-2.1-0.4-4.1-0.7-6.2c-0.4-2.1-0.7-4.2-0.7-6.4c0-5.5,2.4-8.4,6.2-9.3v-0.3
			c-3.8-1.1-6.2-3.8-6.2-9.2c0-2.2,0.4-4.3,0.7-6.4s0.7-4.1,0.7-6c0-4.6-1.8-7.2-6.7-7.4h-1.6V6h1.7c7.2,0,12.5,3.3,12.5,11.2
			c0,2.4-0.4,4.7-0.7,7.1c-0.4,2.4-0.7,4.7-0.7,7.1c0,3,0.8,6.3,7,6.3L144.7,42.1L144.7,42.1z"/>
	</g>
</g>
<g>
	<g>
		<path fill="#010101" d="M44.2,46h8v4.5H39.1V31.3h5.1C44.2,31.3,44.2,46,44.2,46z"/>
	</g>
	<g>
		<path fill="#010101" d="M81,31.2v12.7c0,5.1-2.4,6.6-8,6.6c-7.6,0-8.5-2-8.5-6.6V31.2h5.1v12.7c0,2.2,1.2,2.2,3.4,2.2
			c2.2,0,2.9-0.1,2.9-2.5V31.2H81z"/>
	</g>
	<g>
		<path fill="#010101" d="M106.2,40.5l5.6,9.8h-5.9l-3.8-7.4l-3.8,7.4h-6l5.8-9.8l-5.4-9.3h6l3.4,7.1l3.4-7.1h5.9L106.2,40.5z"/>
	</g>
</g>
</svg>
